<?xml version="1.0" encoding="utf-8"?>
<!-- Generator: Adobe Illustrator 23.0.5, SVG Export Plug-In . SVG Version: 6.00 Build 0)  -->
<svg version="1.1" id="Capa_1" xmlns="http://www.w3.org/2000/svg" xmlns:xlink="http://www.w3.org/1999/xlink" x="0px" y="0px"
	 viewBox="0 0 1505 278" style="enable-background:new 0 0 1505 278;" xml:space="preserve">
<style type="text/css">
	.st0{fill:#FFFFFF;}
</style>
<g>
	<path d="M0,139c1.4-1.1,2.8-2.2,4.1-3.4c20.1-20.1,40.2-40.3,60.2-60.2C74.3,85.2,84.2,95,94,104.7c-11.3,11.4-22.7,22.8-34.4,34.6
		c11.9,11.9,23.4,23.4,35,35c-10.1,9.8-20,19.4-30.1,29.3c-0.9-0.8-2.2-2-3.5-3.3c-19.1-19.1-38.1-38.1-57.2-57.2
		C2.6,142,1.2,141,0,140C0,139.6,0,139.3,0,139z"/>
	<path d="M139,279c-1.2-1.4-2.3-2.8-3.5-4.1c-20.1-20.1-40.3-40.2-60.2-60.2c10-10,19.8-19.8,29.3-29.4c21.1,21,42.5,42.3,64.2,63.8
		C159.3,259,149.6,269,140,279C139.7,279,139.3,279,139,279z"/>
	<path d="M421,83c-16.3,0-32.5,0-49.1,0c0-13.8,0-27.5,0-42c16.4,0,32.8,0,49.1,0C421,55,421,69,421,83z"/>
	<path d="M315.4,83.3c-21.5,0-42.1,0-63,0c0-14.2,0-27.9,0-42c34.8,0,69.5,0,104.7,0c0,65.3,0,130.6,0,196.3c-13.7,0-27.4,0-41.7,0
		C315.4,186.5,315.4,135.3,315.4,83.3z"/>
	<path d="M203.1,65.1c-9.4,9.5-19.1,19.3-28.8,29.2c-11.4-11.4-22.9-22.9-34.6-34.5c-11.9,11.9-23.3,23.2-34.7,34.6
		c-9.8-10.1-19.4-20-28.8-29.7C97,43.9,118.4,22.5,139.4,1.4C160.5,22.5,181.9,43.9,203.1,65.1z"/>
	<path d="M223.1,194.8c-9.4,9.5-19.1,19.1-28.3,28.4c-33-33-66-66.1-98.9-98.9c9.2-9.2,19-19,28.3-28.4
		C157,128.7,190,161.7,223.1,194.8z"/>
	<path d="M214.1,76.3c20.9,20.9,42.3,42.3,63.4,63.4c-9.4,9.4-19.1,19.1-28.7,28.7c-21-21.2-42.3-42.6-63.7-64.1
		C194.6,95.2,204.4,85.6,214.1,76.3z"/>
</g>
<g>
	<path d="M523,238c-2.7-3.4-6.3-6.4-8-10.3c-14.1-33.2-27.8-66.6-41.7-99.9c-0.5-1.2-1.1-2.4-2-4.7c-5.3,12.6-10.2,24.4-15.4,36.7
		c-6.8-2.9-13.3-5.7-20-8.6c0.5-1.5,0.8-2.7,1.3-3.9c7.4-17.8,15-35.6,22.2-53.5c2.1-5.3,5.2-9.1,10.6-10.9c0.7,0,1.3,0,2,0
		c6.9,1.5,9.6,6.9,12,12.7c13.3,32.1,26.6,64.2,40,96.3c0.7,1.7,1.4,3.3,2.5,5.7c1-2.3,1.8-3.9,2.5-5.5c13.7-33,27.4-66,41.3-99
		c1.4-3.3,4-6.7,6.9-8.6c4.6-3,11.5-0.8,13.7,4.2c9.1,20.6,17.8,41.5,26.7,62.6c-7.1,3.1-13.6,5.9-20.4,8.8
		c-5.1-12.3-10.1-24.2-15.5-37.1c-2.4,5.7-4.5,10.5-6.5,15.3c-12.2,29.5-24.3,59-36.8,88.4c-1.8,4.2-5.5,7.5-8.4,11.2
		C527.7,238,525.3,238,523,238z"/>
	<path d="M867,238c-3.5-0.8-7.1-1.5-10.6-2.4c-35.6-9.2-59.4-42.7-57.3-80.6c2-35.3,30.2-65.7,65.5-70.8c3.1-0.4,6.2-0.8,9.3-1.2
		c15.7,0,31.3,0,47,0c0.6,0.3,1.2,0.6,1.8,0.8c6.2,2.1,9.2,6.4,8.4,12.3c-0.7,5.6-5.1,9.5-11.6,9.5c-14.5,0.2-29,0.1-43.4,0.1
		c-16.5-0.1-30.2,6.1-41,18.3c-15.3,17.4-18.6,37.5-9.5,58.5c9.1,21,26,32.4,49.2,33.3c14,0.5,28,0.1,41.9,0.1
		c8.2,0,12.5,2.4,14.1,7.7c1.7,5.6-0.2,9.5-6.9,14.4C905,238,886,238,867,238z"/>
	<path d="M1486,83c0.6,0.3,1.2,0.6,1.8,0.8c6.2,2.1,9.2,6.4,8.4,12.3c-0.7,5.6-5.1,9.5-11.6,9.5c-14.5,0.2-29,0.1-43.4,0.1
		c-16.5-0.1-30.2,6.1-41,18.3c-15.3,17.4-18.6,37.5-9.5,58.5c9.1,21,26,32.4,49.2,33.3c14,0.5,28,0.1,41.9,0.1
		c8.1,0,12.5,2.4,14.1,7.7c1.7,5.6-0.2,9.5-6.9,14.4c-19,0-38,0-57,0c-3.5-0.8-7.1-1.5-10.6-2.4c-35.6-9.2-59.4-42.7-57.3-80.6
		c2-35.3,30.2-65.7,65.5-70.8c3.1-0.4,6.2-0.8,9.3-1.2C1454.7,83,1470.3,83,1486,83z"/>
	<path d="M725,83c7.1,1.6,9.7,7.2,12.2,13.2c14.9,36,29.9,72,44.9,108.1c2,4.9,4.1,9.8,6.1,14.7c4,9.5,3,13.1-5.1,19
		c-2.3,0-4.7,0-7,0c-2.5-2.8-5.8-5.2-7.2-8.4c-14.2-33.5-28.1-67.2-42-100.9c-0.7-1.6-1.5-3.1-2.5-5.2c-1,2.2-1.7,3.7-2.3,5.2
		c-13.7,33-27.5,66-41.1,99.1c-1.9,4.5-4.3,8.2-8.9,10.2c-2,0-4,0-6,0c-8.4-5-9.8-9.1-6-18.1c17.4-41.8,34.9-83.7,52.2-125.6
		c2.2-5.4,5.1-9.5,10.8-11.3C723.7,83,724.3,83,725,83z"/>
	<path d="M1058,238c-6-3.2-8-8.1-7.9-14.8c0.3-16.8,0.1-33.6,0.1-51.3c-2,0-3.7,0-5.4,0c-16.3,0-32.7,0.1-49,0
		c-5.9,0-10.1-3.4-11.4-8.6c-1.2-4.7,1.1-10.1,5.7-12.1c2.2-1,4.8-1.2,7.2-1.3c15.7-0.1,31.3-0.1,47-0.1c1.8,0,3.6,0,5.9,0
		c0-2.4,0-4.2,0-6c0-15.5,0-31,0-46.5c0-2.1,0.2-4.4,0.8-6.4c1.5-5,6.4-7.9,11.7-7.3c5,0.6,8.9,4.3,9.5,9.4c0.2,1.8,0.2,3.7,0.2,5.5
		c0,41.5-0.1,83,0.1,124.5c0,6.6-1.7,11.6-7.5,15C1062.7,238,1060.3,238,1058,238z"/>
	<path d="M948,238c-6-2.8-8.1-7.4-8.1-14c0.2-41.8,0.1-83.7,0.1-125.5c0-9.7,1.4-11.9,10-15.5c0.7,0,1.3,0,2,0
		c8.6,3.5,10.1,5.7,10.1,15.4c0,41.9-0.1,83.8,0.1,125.7c0,6.6-2.2,11.2-8.2,13.9C952,238,950,238,948,238z"/>
	<path d="M1203,83c1.2,0.4,2.5,0.8,3.7,1.4c4.5,2,7,6.3,6.6,11.2c-0.4,4.8-3.7,8.6-8.6,9.7c-1.6,0.3-3.3,0.4-4.9,0.4
		c-35.1,0-70.1,0-105.2,0c-1.5,0-3-0.1-4.5-0.3c-4.8-0.9-8.4-4.8-9-9.4c-0.6-4.7,1.9-9.3,6.3-11.4c1.2-0.6,2.4-1,3.6-1.5
		C1128.3,83,1165.7,83,1203,83z"/>
	<path d="M1345,83c1.2,0.4,2.5,0.8,3.7,1.4c4.5,2,7,6.3,6.6,11.2c-0.4,4.8-3.7,8.6-8.6,9.7c-1.6,0.3-3.3,0.4-4.9,0.4
		c-35.1,0-70.1,0-105.2,0c-1.5,0-3-0.1-4.5-0.3c-4.8-0.9-8.4-4.8-9-9.4c-0.6-4.7,1.9-9.3,6.3-11.4c1.2-0.6,2.4-1,3.6-1.5
		C1270.3,83,1307.7,83,1345,83z"/>
	<path d="M1231,238c-6.7-4-9.2-8.5-7.7-14c1.4-5.1,5.7-8.1,11.8-8.1c25.1,0,50.2,0,75.3,0c10.6,0,21.3,0,31.9,0
		c6.7,0,11.1,2.7,12.6,7.7c1.6,5.5-0.3,9.7-6.3,13.7c-0.3,0.2-0.4,0.5-0.6,0.8C1309,238,1270,238,1231,238z"/>
	<path d="M1144,238c-6.1-3-8.1-7.9-8-14.6c0.2-27.6,0.1-55.2,0.1-82.9c0-7.4,3.8-12.2,9.9-12.7c6.8-0.6,12,3.8,12.1,10.8
		c0.2,10.3,0.1,20.6,0.1,30.9c0,17.8-0.2,35.6,0.1,53.4c0.1,6.6-1.8,11.6-7.4,15C1148.7,238,1146.3,238,1144,238z"/>
	<path d="M405,224c7.6-18,15.2-36.1,22.9-54.1c0.6-1.5,1.3-3,2.1-4.8c6.8,2.9,13.3,5.7,20.2,8.7c-4.7,11.3-9.3,22.3-13.8,33.3
		c-2.9,7.1-6,14.1-8.7,21.2c-1.7,4.4-4.3,7.8-8.7,9.8c-2,0-4,0-6,0c-2.7-2.7-5.3-5.3-8-8C405,228,405,226,405,224z"/>
	<path d="M633,238c-2.7-3.8-6.2-7.2-8.1-11.4c-7.5-17.2-14.6-34.6-22-52.4c6.6-2.9,13.1-5.7,20.1-8.7c0.8,1.7,1.5,3.1,2.1,4.5
		c6.9,16.5,13.8,33.1,20.7,49.7c3.7,9,2.4,13-5.8,18.3C637.7,238,635.3,238,633,238z"/>
	<path class="st0" d="M405,230c2.7,2.7,5.3,5.3,8,8c-2.7,0-5.3,0-8,0C405,235.3,405,232.7,405,230z"/>
	<path d="M1289.4,149.8c17.6,0,35.3,0,52.9,0c8.3,0,13.1,4.1,13,11c0,6.8-5,11-13.2,11c-35.6,0-71.2,0-106.8,0c-6.1,0-10.4-3-11.9-8
		c-1.4-4.5,0.3-9.8,4.5-12.2c2.3-1.3,5.3-1.9,8-1.9C1253.8,149.7,1271.6,149.8,1289.4,149.8z"/>
</g>
</svg>
